# xmcd CD database file
#
# Track frame offsets:
#	150
#	15936
#	29171
#	43553
#	63269
#	81213
#	97627
#	111585
#	127522
#	141109
#	158378
#	172585
#
# Disc length: 2508 seconds
#
# Revision: 0
# Processed by: cddbd v1.5.2PL0 Copyright (c) Steve Scherf et al.
# Submitted via: CDex 1.78
#
DISCID=7f09ca0c
DTITLE=The Wandering Hearts - Wild Silence
DYEAR=1900
DGENRE=Country
TTITLE0=The Wandering Hearts - Rattle
TTITLE1=The Wandering Hearts - Wish I Could
TTITLE2=The Wandering Hearts - Fire And Water
TTITLE3=The Wandering Hearts - If I Fall
TTITLE4=The Wandering Hearts - Change For The Good
TTITLE5=The Wandering Hearts - Devil
TTITLE6=The Wandering Hearts - Biting Through The Wires
TTITLE7=The Wandering Hearts - Wild Silence
TTITLE8=The Wandering Hearts - Laid In The Ground
TTITLE9=The Wandering Hearts - Burning Bridges
TTITLE10=The Wandering Hearts - Heartbreak Hotel
TTITLE11=The Wandering Hearts - Iona
EXTD=
EXTT0=
EXTT1=
EXTT2=
EXTT3=
EXTT4=
EXTT5=
EXTT6=
EXTT7=
EXTT8=
EXTT9=
EXTT10=
EXTT11=
PLAYORDER=
